<svg xmlns="http://www.w3.org/2000/svg" width="1509" height="1470" viewBox="0 0 1509 1470" fill="none">
<g clip-path="url(#clip0_251_47)">
<path d="M1408.98 858.391H1324.53L1424.95 179.336L754.884 -4.39297e-05L84.8201 179.336L185.235 858.391H105.256L-23 1235.31L21.4574 1228.4C142.093 1209.64 263.383 1195.3 382.125 1185.74L754.884 1474.03L1127.69 1185.7C1246.47 1195.26 1367.73 1209.62 1488.3 1228.4L1532.17 1235.23L1408.98 858.391Z" fill="white"/>
<path d="M754.884 28.1917L115.311 199.366L239.801 1041.24L754.884 1439.61L1269.97 1041.24L1394.46 199.366L754.884 28.1917Z" fill="#FF7400"/>
<path d="M268.755 1024.29L150.156 222.258L754.883 60.4104L1359.61 222.258L1241.01 1024.29L754.883 1400.26L268.755 1024.29Z" fill="white"/>
<path d="M297.71 1007.33L185.002 245.151L754.883 92.6283L1324.76 245.151L1212.06 1007.33L754.883 1360.92L297.71 1007.33Z" fill="white"/>
<path d="M326.665 990.383L219.849 268.044L754.883 124.847L1289.92 268.044L1183.1 990.383L754.883 1321.57L326.665 990.383Z" fill="#FF7400"/>
<path d="M735.948 263.685L625.67 596.833L735.948 806.15H607.991L545.696 687.11V806.15H431.207L431.65 344.456L545.736 314.033L545.696 477.796L605.06 297.3L735.948 263.685Z" fill="white"/>
<path d="M888.306 806.15H964.07C979.776 806.15 994.653 803.354 1008.69 797.761C1022.71 792.169 1034.92 784.454 1045.31 774.591C1055.68 764.742 1063.83 753.295 1069.72 740.239C1075.61 727.194 1078.56 713.213 1078.56 698.295V625.594H964.07V697.498H888.306L887.994 411.386L964.07 427.098V499.001H1078.56V426.625C1078.56 411.783 1075.61 397.726 1069.72 384.47C1063.83 371.213 1055.68 359.678 1045.31 349.866C1034.92 340.054 1022.71 332.366 1008.69 326.798L887.994 294.258L773.818 263.685V399.718V698.295V805.782L888.306 806.15Z" fill="white"/>
<path d="M1492.49 1201.49C995.602 1124.09 515.197 1124.09 17.2744 1201.49C53.1011 1096.2 88.9277 990.911 124.754 885.624H1389.23C1423.65 990.911 1458.07 1096.2 1492.49 1201.49Z" fill="#FF7400"/>
<path d="M243.898 924.11C219.506 968.732 194.354 1014.13 168.417 1060.39C173.31 1087.72 178.661 1114.57 184.453 1140.99C168.654 1142.7 152.817 1144.49 136.942 1146.34C134.04 1131.04 131.286 1115.6 128.684 1099.99C123.689 1116.36 118.694 1132.72 113.7 1149.09C99.4251 1150.81 85.1184 1152.58 70.7744 1154.41C95.3997 1078.32 120.021 1002.22 144.638 926.134C157.085 925.858 169.526 925.59 181.962 925.331C172.985 954.771 164.006 984.208 155.026 1013.65C172.014 983.694 188.668 954.106 204.994 924.86C217.968 924.602 230.936 924.352 243.898 924.11Z" fill="white"/>
<path d="M355.189 922.26C340.232 991.08 325.261 1059.9 310.276 1128.72C296.356 1129.92 282.411 1131.18 268.44 1132.49C275.044 1104.6 281.648 1076.7 288.247 1048.81C279.412 1049.39 270.571 1049.97 261.72 1050.58C254.696 1078.77 247.669 1106.97 240.64 1135.17C226.607 1136.55 212.545 1137.99 198.456 1139.49C217.719 1067.62 236.972 995.752 256.215 923.884C268.623 923.658 281.025 923.442 293.424 923.232C286.383 951.532 279.339 979.832 272.293 1008.13C280.928 1007.68 289.557 1007.24 298.181 1006.82C304.8 978.82 311.417 950.826 318.033 922.83C330.423 922.631 342.808 922.442 355.189 922.26Z" fill="white"/>
<path d="M491.845 920.601C482.217 986.299 472.577 1052 462.925 1117.7C449.195 1118.49 435.45 1119.34 421.687 1120.24C425.917 1094.81 430.146 1069.38 434.373 1043.95C421.347 1069.97 408.066 1096.21 394.521 1122.68C394.318 1122.7 394.115 1122.71 393.913 1122.73C389.615 1097.53 385.562 1072.15 381.761 1046.56C376.806 1072.42 371.849 1098.27 366.891 1124.13C353.049 1125.18 339.186 1126.28 325.301 1127.44C339.737 1058.98 354.158 990.526 368.567 922.07C380.943 921.894 393.317 921.727 405.687 921.569C408.962 947.715 412.497 973.637 416.287 999.357C429.378 973.015 442.207 946.899 454.778 920.983C467.137 920.849 479.491 920.721 491.845 920.601Z" fill="white"/>
<path d="M578.751 1073.85C577.548 1086.71 576.344 1099.58 575.14 1112.44C543.045 1113.59 510.888 1115.05 478.66 1116.82C487.788 1051.37 496.905 985.915 506.012 920.466C535.067 920.201 564.111 919.981 593.144 919.806C591.944 932.667 590.744 945.529 589.543 958.389C572.499 958.602 555.447 958.847 538.389 959.125C536.845 972.019 535.301 984.915 533.756 997.81C551.169 997.386 568.573 997.011 585.967 996.687C584.764 1009.55 583.563 1022.41 582.36 1035.27C564.613 1035.71 546.856 1036.21 529.084 1036.78C527.527 1049.77 525.967 1062.76 524.409 1075.76C542.54 1075.04 560.653 1074.4 578.751 1073.85Z" fill="white"/>
<path d="M663.746 1008.48C664.653 991.535 665.56 974.593 666.468 957.65C658.14 957.706 649.812 957.771 641.481 957.841C640.352 974.83 639.222 991.817 638.093 1008.8C646.645 1008.68 655.196 1008.57 663.746 1008.48ZM704.214 957.449C703.641 974.343 703.068 991.239 702.496 1008.13C702.222 1016.17 699.63 1023.46 694.698 1030.03C689.73 1036.61 683.222 1041.25 675.182 1043.96C682.948 1065.83 690.905 1087.67 699.054 1109.5C684.574 1109.67 670.089 1109.89 655.601 1110.18C648.665 1090.59 641.885 1070.98 635.262 1051.32C633.942 1071.12 632.624 1090.93 631.304 1110.73C617.7 1111.06 604.086 1111.46 590.468 1111.91C595.992 1047.85 601.51 983.786 607.021 919.726C627.52 919.615 648.016 919.525 668.509 919.459C673.584 919.443 678.346 920.41 682.792 922.362C687.244 924.313 691.085 927.01 694.321 930.455C697.562 933.906 700.065 937.961 701.825 942.617C703.592 947.281 704.389 952.225 704.214 957.449Z" fill="white"/>
<path d="M821.386 1046.32C821.606 1054.81 821.827 1063.31 822.047 1071.81C822.183 1077.05 821.275 1081.94 819.319 1086.49C817.352 1091.04 814.571 1095.02 810.974 1098.43C807.359 1101.85 803.08 1104.51 798.13 1106.43C793.168 1108.35 787.883 1109.29 782.3 1109.26C773.316 1109.21 764.334 1109.18 755.351 1109.18C749.762 1109.18 744.479 1108.22 739.524 1106.27C734.571 1104.33 730.29 1101.65 726.684 1098.22C723.084 1094.79 720.306 1090.8 718.346 1086.24C716.391 1081.69 715.484 1076.8 715.624 1071.57C716.63 1033.52 717.635 995.457 718.639 957.399C718.776 952.179 719.875 947.229 721.922 942.564C723.96 937.899 726.702 933.836 730.158 930.379C733.595 926.924 737.599 924.216 742.175 922.258C746.736 920.299 751.554 919.312 756.632 919.316C764.791 919.316 772.95 919.32 781.108 919.327C786.184 919.332 791.002 920.313 795.564 922.269C800.134 924.227 804.135 926.928 807.578 930.376C811.024 933.827 813.768 937.876 815.806 942.531C817.85 947.187 818.944 952.121 819.08 957.327C819.299 965.788 819.518 974.249 819.736 982.711C806.991 982.632 794.247 982.576 781.504 982.544C781.451 974.153 781.399 965.76 781.347 957.369C773.023 957.353 764.699 957.345 756.375 957.345C756.119 995.283 755.863 1033.22 755.608 1071.15C764.426 1071.15 773.243 1071.17 782.06 1071.21C782.007 1062.82 781.955 1054.43 781.902 1046.04C795.062 1046.09 808.223 1046.18 821.386 1046.32Z" fill="white"/>
<path d="M902.96 1073.02C900.443 1034.71 897.931 996.387 895.42 958.069C887.09 957.983 878.759 957.904 870.43 957.832C872.436 996.025 874.447 1034.22 876.459 1072.41C885.29 1072.6 894.123 1072.8 902.96 1073.02ZM933.199 958.515C936.488 997.163 939.778 1035.81 943.072 1074.46C943.528 1079.77 942.914 1084.71 941.223 1089.27C939.527 1093.85 936.979 1097.81 933.578 1101.18C930.16 1104.56 926.028 1107.15 921.183 1108.97C916.322 1110.78 911.087 1111.6 905.484 1111.44C896.479 1111.17 887.478 1110.92 878.478 1110.7C872.84 1110.56 867.503 1109.46 862.484 1107.38C857.471 1105.31 853.043 1102.52 849.199 1098.98C845.37 1095.46 842.327 1091.39 840.076 1086.77C837.831 1082.16 836.628 1077.24 836.455 1072C835.195 1033.85 833.936 995.709 832.679 957.564C832.507 952.329 833.315 947.383 835.102 942.713C836.876 938.049 839.4 933.995 842.672 930.541C845.932 927.093 849.758 924.392 854.162 922.441C858.552 920.489 863.3 919.524 868.418 919.545C876.58 919.579 884.742 919.615 892.904 919.657C897.98 919.683 902.859 920.696 907.544 922.705C912.232 924.716 916.4 927.481 920.051 931.004C923.712 934.531 926.708 938.675 929.023 943.424C931.354 948.177 932.747 953.215 933.199 958.515Z" fill="white"/>
<path d="M1025.2 1077.39C1020.3 1038.18 1015.4 998.969 1010.5 959.756C1002.15 959.599 993.807 959.448 985.461 959.307C989.828 998.279 994.197 1037.25 998.569 1076.22C1007.44 1076.59 1016.32 1076.98 1025.2 1077.39ZM1048.38 960.528C1054.11 1000.24 1059.84 1039.96 1065.57 1079.68C1066.37 1085.13 1066.06 1090.19 1064.65 1094.83C1063.23 1099.48 1060.92 1103.49 1057.71 1106.87C1054.49 1110.25 1050.5 1112.8 1045.74 1114.55C1040.97 1116.29 1035.76 1117 1030.12 1116.7C1007.38 1115.46 984.667 1114.38 961.984 1113.44C956.003 1048.95 950.028 984.453 944.065 919.959C964.571 920.1 985.083 920.263 1005.6 920.449C1010.68 920.495 1015.63 921.553 1020.44 923.632C1025.26 925.708 1029.61 928.565 1033.48 932.2C1037.37 935.841 1040.62 940.104 1043.25 945C1045.88 949.897 1047.59 955.08 1048.38 960.528Z" fill="white"/>
<path d="M1175.83 1086.2C1178.53 1099.91 1181.22 1113.61 1183.92 1127.32C1151.32 1124.59 1118.82 1122.18 1086.43 1120.07C1076.37 1053.7 1066.32 987.326 1056.28 920.957C1085.36 921.275 1114.45 921.639 1143.56 922.05C1146.25 935.754 1148.95 949.458 1151.64 963.163C1134.49 962.661 1117.36 962.19 1100.24 961.754C1102.52 975.11 1104.8 988.466 1107.08 1001.82C1124.58 1002.49 1142.11 1003.21 1159.66 1003.97C1162.35 1017.68 1165.05 1031.38 1167.74 1045.09C1149.79 1044.05 1131.87 1043.09 1113.97 1042.19C1116.26 1055.64 1118.56 1069.1 1120.86 1082.56C1139.15 1083.69 1157.47 1084.9 1175.83 1086.2Z" fill="white"/>
<path d="M1242.49 1022.13C1238.07 1003.3 1233.64 984.476 1229.21 965.653C1220.8 965.359 1212.39 965.073 1203.98 964.795C1208.13 983.419 1212.27 1002.04 1216.42 1020.66C1225.11 1021.14 1233.8 1021.63 1242.49 1022.13ZM1267.4 967.037C1272.26 986.186 1277.13 1005.34 1281.99 1024.49C1284.31 1033.59 1284.01 1041.69 1281.06 1048.73C1278.07 1055.77 1272.88 1060.44 1265.47 1062.76C1280.43 1088 1295.68 1113.54 1311.21 1139.39C1296.21 1137.8 1281.24 1136.27 1266.31 1134.8C1252.92 1112.06 1239.75 1089.56 1226.81 1067.27C1231.64 1088.98 1236.49 1110.69 1241.33 1132.4C1227.37 1131.09 1213.45 1129.84 1199.54 1128.64C1185.51 1059.84 1171.49 991.045 1157.49 922.249C1178.06 922.549 1198.64 922.873 1219.24 923.219C1224.34 923.304 1229.43 924.48 1234.53 926.765C1239.63 929.047 1244.37 932.179 1248.73 936.149C1253.1 940.127 1256.93 944.787 1260.21 950.128C1263.49 955.471 1265.9 961.114 1267.4 967.037Z" fill="white"/>
<path d="M1420.11 1091.54C1421.89 1097.26 1423.66 1102.97 1425.43 1108.68C1427.38 1114.96 1428.14 1120.79 1427.7 1126.12C1427.24 1131.47 1425.72 1135.97 1423.12 1139.63C1420.51 1143.29 1416.93 1145.95 1412.39 1147.64C1407.85 1149.32 1402.63 1149.8 1396.77 1149.09C1387.25 1147.94 1377.74 1146.82 1368.24 1145.72C1362.4 1145.05 1356.57 1143.28 1350.76 1140.45C1344.96 1137.62 1339.62 1134.03 1334.75 1129.68C1329.89 1125.33 1325.69 1120.4 1322.15 1114.88C1318.61 1109.37 1316.08 1103.65 1314.53 1097.71C1312.02 1088.07 1309.51 1078.42 1306.99 1068.78C1320.54 1069.88 1334.11 1071.02 1347.7 1072.2C1350.42 1081.96 1353.15 1091.72 1355.88 1101.47C1365.14 1102.39 1374.41 1103.32 1383.69 1104.27C1382.25 1099.33 1380.8 1094.39 1379.36 1089.44C1379.17 1088.79 1378.98 1088.12 1378.78 1087.47C1352.78 1062.21 1327.41 1037.69 1302.63 1013.81C1298.28 1009.55 1294.59 1004.88 1291.55 999.774C1288.53 994.675 1286.32 989.472 1284.94 984.147C1283.49 978.611 1282.05 973.075 1280.61 967.539C1279.06 961.582 1278.57 955.976 1279.12 950.704C1279.67 945.438 1281.12 940.867 1283.48 936.991C1285.83 933.12 1288.98 930.092 1292.95 927.928C1296.9 925.763 1301.43 924.723 1306.55 924.823C1314.86 924.988 1323.17 925.158 1331.49 925.331C1336.61 925.439 1341.79 926.69 1347.07 929.124C1352.35 931.555 1357.32 934.878 1361.98 939.096C1366.66 943.318 1370.84 948.267 1374.52 953.93C1378.21 959.598 1381.04 965.583 1382.98 971.854L1392.37 1002.11C1379.3 1001.32 1366.25 1000.55 1353.21 999.808C1350.33 989.922 1347.44 980.036 1344.56 970.148C1336 969.78 1327.45 969.42 1318.9 969.067C1320.47 974.706 1322.05 980.346 1323.62 985.984C1348.54 1010.08 1374.08 1034.85 1400.26 1060.37C1404.95 1064.9 1409 1069.83 1412.39 1075.15C1415.8 1080.47 1418.38 1085.94 1420.11 1091.54Z" fill="white"/>
</g>
<defs>
<clipPath id="clip0_251_47">
<rect width="1509" height="1470" fill="white"/>
</clipPath>
</defs>
</svg>
