<svg width="960" height="960" viewBox="0 0 960 960" fill="none" xmlns="http://www.w3.org/2000/svg">
<circle cx="480" cy="480" r="480" fill="#f5f5f5"/>
<g transform="scale(1.2) translate(-96, -96)">
<path fill-rule="evenodd" clip-rule="evenodd" d="M751.937 360.486C729.401 334.088 702.719 311.534 672.937 293.708C618.099 260.759 552.372 243.248 482.666 247.066C384.122 252.466 298.135 299.4 242.274 369.1C215.023 402.959 195.265 442.213 184.303 484.272C176.61 514.096 173.56 544.929 175.261 575.683C184.677 747.353 337.575 878.554 516.761 868.726C695.947 858.898 833.579 711.768 824.161 540.098C820.413 471.669 793.87 409.686 751.937 360.486ZM604.626 308.666C649.781 318.435 685.085 358.752 694.737 403.942H694.736C704.376 449.132 690.566 497.45 663.453 534.866C653.801 548.196 642.169 560.605 627.422 567.886C612.675 575.167 591.24 574.91 576.88 566.886C585.231 610.998 594.215 659.165 584.458 703.007C574.701 746.849 541.962 788.83 497.452 794.815C465.123 799.173 432.079 783.477 410.679 758.844C389.279 734.211 378.468 701.765 374.942 669.331C371.416 636.897 374.661 604.135 378.48 571.724C351.41 593.218 311.408 587.926 286.518 563.946C261.628 539.966 252.96 502.674 257.118 468.366C261.746 430.087 283.38 391.866 318.918 376.92C334.896 370.198 352.233 368.576 369.612 366.949C378.369 366.13 387.136 365.31 395.746 363.836C423.52 359.089 449.423 347.572 475.286 336.073C482.927 332.676 490.565 329.28 498.246 326.061C531.926 311.946 568.936 300.936 604.626 308.666ZM741.561 371.612C740.808 370.804 739.543 370.76 738.735 371.513C737.927 372.266 737.883 373.532 738.636 374.34C784.369 423.386 807.809 492.493 801.351 559.241C801.245 560.34 802.05 561.318 803.149 561.424C804.248 561.531 805.226 560.726 805.332 559.626C811.901 491.737 788.076 421.497 741.561 371.612Z" fill="#171717"/>
<path d="M752.87 359.7L751.933 360.485C729.398 334.088 702.718 311.534 672.938 293.707C676.815 275.236 685.261 257.513 698.438 243.996C711.721 230.374 729.982 221.296 748.993 220.581C768.004 219.866 787.506 227.996 799.161 243.036C808.332 254.878 812.303 270.246 811.811 285.215C811.255 302.304 805.228 318.764 794.618 332.172C784.008 345.58 769.374 355.229 752.87 359.7V359.7Z" fill="#FFB800"/>
<path d="M242.275 369.1C215.02 402.96 195.258 442.216 184.294 484.277C170.262 492.195 151.966 490.825 138.109 482.544C124.009 474.11 114.354 459.351 109.985 443.515C106.928 432.239 106.338 420.436 108.256 408.911C110.174 397.386 114.555 386.41 121.1 376.732C127.782 367.147 136.507 359.164 146.647 353.359C156.787 347.554 168.089 344.071 179.737 343.162C191.4 342.431 203.075 344.371 213.874 348.835C224.673 353.299 234.31 360.168 242.052 368.92L242.275 369.1Z" fill="#FFB800"/>
<path d="M751.933 360.486C793.866 409.686 820.409 471.669 824.157 540.098C833.575 711.768 695.943 858.898 516.757 868.726C337.571 878.554 184.673 747.353 175.257 575.683C173.556 544.929 176.606 514.096 184.299 484.272C195.262 442.213 215.023 402.958 242.275 369.1C298.136 299.4 384.123 252.466 482.667 247.066C552.373 243.248 618.097 260.759 672.938 293.708C702.718 311.535 729.398 334.089 751.933 360.486V360.486Z" stroke="#171717" stroke-width="4" stroke-linecap="round" stroke-linejoin="round"/>
<path d="M576.878 566.886C591.238 574.91 612.673 575.167 627.42 567.886C642.167 560.605 653.799 548.196 663.451 534.866C690.567 497.454 704.377 449.136 694.737 403.946C685.097 358.756 649.781 318.439 604.626 308.67C568.936 300.94 531.926 311.95 498.246 326.065C464.566 340.18 431.726 357.691 395.746 363.84C370.046 368.24 342.946 366.815 318.918 376.924C283.38 391.87 261.746 430.091 257.118 468.37C252.96 502.678 261.628 539.97 286.518 563.95C311.408 587.93 351.408 593.222 378.48 571.728" stroke="#171717" stroke-width="4" stroke-linecap="round" stroke-linejoin="round"/>
<path d="M378.478 571.724C374.659 604.135 371.414 636.897 374.94 669.331C378.466 701.765 389.277 734.211 410.677 758.844C432.077 783.477 465.121 799.173 497.45 794.815C541.96 788.83 574.699 746.849 584.456 703.007C594.213 659.165 585.229 610.998 576.878 566.886" stroke="#171717" stroke-width="4" stroke-linecap="round" stroke-linejoin="round"/>
<path d="M481.274 677.788C489.262 679.405 497.523 679.054 505.344 676.763C513.166 674.473 520.311 670.312 526.164 664.641C532.017 658.97 536.401 651.958 538.937 644.213C541.473 636.468 542.085 628.222 540.719 620.188" stroke="#171717" stroke-width="4" stroke-linecap="round" stroke-linejoin="round"/>
<path d="M446.754 566.886C443.041 560.631 440.148 553.498 440.863 546.259C441.578 539.02 446.836 531.852 454.052 530.938C460.916 530.071 467.464 535.003 470.685 541.117C473.906 547.231 474.515 554.353 475.065 561.252C476.998 554.318 475.593 546.938 475.921 539.746C476.249 532.554 479.212 524.472 486.021 522.118C493.821 519.424 502.303 526.253 504.493 534.218C506.683 542.183 504.423 550.605 502.162 558.546" stroke="#171717" stroke-width="4" stroke-linecap="round" stroke-linejoin="round"/>
<path d="M379.918 486.182C375.549 473.73 383.667 458.409 396.418 455.036C409.169 451.663 423.804 460.951 426.17 473.929" stroke="#171717" stroke-width="4" stroke-linecap="round" stroke-linejoin="round"/>
<path d="M525.058 452.681C521.966 439.293 533.843 424.605 547.583 424.851C561.323 425.097 572.696 440.16 569.147 453.443" stroke="#171717" stroke-width="4" stroke-linecap="round" stroke-linejoin="round"/>
</g>
</svg>