<svg xmlns="http://www.w3.org/2000/svg" width="1509" height="1470" viewBox="0 0 1509 1470" fill="#fff">
<path d="M1409 858H1325l100-679L755 0L85 179l100 679H105L-23 1235l44-7c121-19 242-33 361-43l373 289 373-288c119 10 240 24 361 43l44 7L1409 858Z"/>
<path d="M755 28L115 199l125 842 515 398 515-398L1394 199 755 28Z" fill="#FF7400"/>
<path d="M269 1024L150 222l605-162 605 162-119 802L755 1400 269 1024Z"/>
<path d="M298 1007L185 245l570-152 570 152-113 762L755 1361 298 1007Z"/>
<path d="M327 990L220 268l535-143 535 143-107 722L755 1322 327 990Z" fill="#FF7400"/>
<path d="M736 264L626 597l110 209H608l-62-119v119H431l1-462 114-30v164l59-181 131-33Z"/>
<path d="M888 806h76c16 0 31-3 45-8 14-6 26-13 36-23 10-10 18-21 24-34 6-13 9-27 9-42v-73h-114v72h-76V411l76 16v72h114v-72c0-15-3-29-9-42-6-13-14-25-24-35-10-12-22-19-36-25L888 294 774 264v136 299 107l114 0Z"/>
<path d="M1492 1201C996 1124 515 1124 17 1201c36-105 72-210 108-316h1264c34 106 69 211 104 316Z" fill="#FF7400"/>
<g fill="#fff">
<path d="M244 924c-24 45-49 90-75 136 5 27 10 54 16 80-16 2-32 4-48 6-3-15-6-31-8-46-5 16-10 33-15 49-14 2-28 4-43 6 25-76 49-152 74-228 12 0 25 0 37 0-9 29-18 59-27 88 17-30 34-60 50-89 13 0 26 0 39 0Z"/>
<path d="M355 922c-15 69-30 138-45 207-14 1-28 3-42 5 7-28 13-56 20-84-9 1-18 1-27 2-7 28-14 56-21 84-14 1-28 3-42 5 19-72 38-144 58-216 12 0 25 0 37 0-7 28-14 57-21 85 9 0 17-1 26-1 7-28 13-56 20-85 12 0 25 0 37 0Z"/>
<path d="M492 921c-10 66-19 132-29 197-14 1-28 2-41 3 4-25 8-51 12-76-13 26-26 52-40 78 0 0 0 0 0 0-4-25-8-50-12-76-5 26-10 52-15 78-14 1-28 2-42 3 14-68 29-137 43-205 12 0 25 0 37 0 3 26 7 52 11 78 13-26 26-52 38-78 12 0 25 0 37 0Z"/>
<path d="M579 1074c-1 13-2 26-3 39-32 1-64 3-96 5 9-65 18-131 27-196 29 0 58 0 87 0-1 13-2 26-3 39-17 0-34 1-51 1-2 13-3 26-5 39 17 0 35-1 52-1-1 13-2 26-3 39-18 0-35 1-53 1-2 13-3 26-5 39 18-1 36-1 54-1Z"/>
<path d="M664 1008c1-17 2-34 3-51-8 0-17 0-25 0-1 17-2 34-3 51 9 0 17 0 25 0Zm40-51c-1 17-1 34-2 51 0 8-3 15-8 22-5 6-11 11-19 14 8 22 16 44 24 66-14 0-29 0-43 0-7-20-13-39-20-59-1 20-3 40-4 60-14 0-27 1-41 1 6-64 11-128 16-192 20 0 41 0 61 0 5 0 10 1 14 3 4 2 8 5 11 8 3 4 6 8 7 13 2 5 3 10 3 15Z"/>
<path d="M821 1046c0 8 0 17 0 25 0 5-1 10-3 15-2 5-5 9-8 12-4 3-8 6-13 8-5 2-10 3-16 3-9 0-18 0-27 0-6 0-11-1-16-3-5-2-9-5-13-8-4-3-6-7-8-12-2-5-3-10-3-15 1-38 2-76 3-114 0-5 1-10 3-15 2-5 5-9 8-12 3-4 7-6 12-8 5-2 10-3 15-3 8 0 16 0 24 0 5 0 10 1 15 3 5 2 9 5 12 8 3 4 6 8 8 12 2 5 3 10 3 15 0 8 0 17 0 25-13 0-26 0-38 0 0-8 0-17 0-25-8 0-17 0-25 0 0 38 0 76 0 114 9 0 18 0 27 0 0-8 0-17 0-25 13 0 26 0 40 0Z"/>
<path d="M903 1073c-3-38-5-77-8-115-8 0-17 0-25 0 2 38 4 76 6 114 9 0 18 0 27 0Zm30-114c3 39 7 77 10 116 0 5 0 10-2 15-2 5-4 9-8 12-3 4-7 6-12 8-5 2-10 3-16 3-9 0-18 0-27 0-6 0-11-1-16-3-5-2-9-5-12-8-4-4-7-8-9-13-2-5-3-10-3-15-1-38-3-76-4-114 0-5 1-10 3-15 2-5 4-9 8-12 3-4 7-6 12-8 4-2 9-3 14-3 8 0 16 0 24 0 5 0 10 1 15 3 5 2 9 5 13 8 4 4 7 8 9 13 2 5 3 10 3 15Z"/>
<path d="M1025 1077c-5-39-10-78-15-117-8 0-17 0-25 0 4 39 9 78 13 117 9 0 18 1 27 1Zm23-117c6 40 12 80 17 120 1 5 0 10-1 15-1 5-4 9-7 12-3 4-7 6-12 8-5 2-10 3-16 3-23-1-45-2-68-3-6-64-12-129-18-193 20 0 41 0 61 0 5 0 10 1 15 3 5 2 9 5 13 8 4 4 7 8 9 13 3 5 4 10 5 15Z"/>
<path d="M1176 1086c3 14 6 28 8 42-33-3-65-5-97-7-10-66-20-133-30-199 29 0 58 1 87 1 3 14 6 28 8 42-17-1-34-1-51-1 2 13 4 27 6 40 17 1 35 1 52 2 3 14 6 28 8 42-18-1-36-2-54-3 2 13 4 27 6 40 18 1 36 2 55 3Z"/>
<path d="M1242 1022c-4-19-9-38-13-57-8 0-17 0-25 0 4 19 8 37 12 56 9 1 17 1 26 1Zm25-55c5 19 10 38 15 57 2 9 2 17-1 24-3 7-8 12-15 14 15 25 30 51 46 77-15-2-30-3-45-5-13-23-26-45-39-67 5 22 10 43 15 65-14-1-28-3-42-4-14-69-28-138-42-207 21 0 41 0 62 0 5 0 10 1 15 3 5 2 10 5 14 9 4 4 8 9 11 14 3 5 6 11 7 17Z"/>
<path d="M1420 1092c2 6 4 12 5 17 2 6 3 12 2 17-1 5-2 10-5 14-3 4-6 7-11 8-4 2-10 2-16 1-10-1-19-2-29-3-6-1-12-3-18-6-6-3-11-7-16-11-5-4-9-9-13-15-3-5-6-11-7-17-3-10-5-20-8-29 14 1 27 2 41 3 3 10 6 20 8 29 9 1 19 2 28 2-2-5-3-10-5-15 0-1 0-1 0-2-26-25-51-50-76-74-4-4-8-9-11-14-3-5-5-10-7-15-1-6-3-11-4-17-2-6-2-11-1-16 1-5 2-10 5-14 3-4 6-7 11-9 4-2 9-3 14-3 8 0 17 0 25 0 5 0 10 1 15 3 5 3 10 6 15 10 5 4 9 9 13 15 4 6 7 12 9 18l9 30c-13-1-26-2-39-3-3-10-6-20-9-30-9 0-17-1-26-1 2 6 3 11 5 17 25 24 50 49 77 74 5 5 9 10 12 15 4 5 6 11 8 16Z"/>
</g>
</svg>
